%TF.GenerationSoftware,KiCad,Pcbnew,6.0.5*%
%TF.CreationDate,2022-05-09T00:08:56+02:00*%
%TF.ProjectId,gauge,67617567-652e-46b6-9963-61645f706362,rev?*%
%TF.SameCoordinates,Original*%
%TF.FileFunction,Soldermask,Top*%
%TF.FilePolarity,Negative*%
%FSLAX46Y46*%
G04 Gerber Fmt 4.6, Leading zero omitted, Abs format (unit mm)*
G04 Created by KiCad (PCBNEW 6.0.5) date 2022-05-09 00:08:56*
%MOMM*%
%LPD*%
G01*
G04 APERTURE LIST*
G04 Aperture macros list*
%AMRoundRect*
0 Rectangle with rounded corners*
0 $1 Rounding radius*
0 $2 $3 $4 $5 $6 $7 $8 $9 X,Y pos of 4 corners*
0 Add a 4 corners polygon primitive as box body*
4,1,4,$2,$3,$4,$5,$6,$7,$8,$9,$2,$3,0*
0 Add four circle primitives for the rounded corners*
1,1,$1+$1,$2,$3*
1,1,$1+$1,$4,$5*
1,1,$1+$1,$6,$7*
1,1,$1+$1,$8,$9*
0 Add four rect primitives between the rounded corners*
20,1,$1+$1,$2,$3,$4,$5,0*
20,1,$1+$1,$4,$5,$6,$7,0*
20,1,$1+$1,$6,$7,$8,$9,0*
20,1,$1+$1,$8,$9,$2,$3,0*%
G04 Aperture macros list end*
%ADD10R,1.700000X1.700000*%
%ADD11O,1.700000X1.700000*%
%ADD12RoundRect,0.125000X-0.250000X-0.125000X0.250000X-0.125000X0.250000X0.125000X-0.250000X0.125000X0*%
%ADD13R,3.400000X4.300000*%
%ADD14RoundRect,0.062500X-0.337500X-0.062500X0.337500X-0.062500X0.337500X0.062500X-0.337500X0.062500X0*%
%ADD15RoundRect,0.062500X-0.062500X-0.337500X0.062500X-0.337500X0.062500X0.337500X-0.062500X0.337500X0*%
%ADD16R,3.350000X3.350000*%
%ADD17R,0.400000X1.350000*%
%ADD18R,0.875000X1.900000*%
%ADD19O,1.000000X1.900000*%
%ADD20O,1.050000X1.250000*%
%ADD21R,2.900000X1.900000*%
%ADD22R,0.500000X1.000000*%
%ADD23R,0.800000X0.500000*%
%ADD24R,0.800000X0.300000*%
%ADD25R,0.500000X1.480000*%
%ADD26C,3.250000*%
%ADD27C,2.600000*%
%ADD28C,1.890000*%
%ADD29R,1.900000X1.900000*%
%ADD30C,1.900000*%
%ADD31R,1.600000X1.500000*%
%ADD32C,1.600000*%
%ADD33C,3.000000*%
%ADD34C,1.100000*%
%ADD35R,1.100000X2.500000*%
%ADD36O,1.900000X3.500000*%
%ADD37RoundRect,0.150000X-0.650000X-0.150000X0.650000X-0.150000X0.650000X0.150000X-0.650000X0.150000X0*%
G04 APERTURE END LIST*
D10*
%TO.C,J4*%
X140380000Y-115000000D03*
D11*
X142920000Y-115000000D03*
X145460000Y-115000000D03*
X148000000Y-115000000D03*
X150540000Y-115000000D03*
X153080000Y-115000000D03*
%TD*%
D10*
%TO.C,J15*%
X95375000Y-95000000D03*
D11*
X97915000Y-95000000D03*
X100455000Y-95000000D03*
X102995000Y-95000000D03*
X105535000Y-95000000D03*
X108075000Y-95000000D03*
X110615000Y-95000000D03*
X113155000Y-95000000D03*
X115695000Y-95000000D03*
X118235000Y-95000000D03*
X120775000Y-95000000D03*
X123315000Y-95000000D03*
X125855000Y-95000000D03*
X128395000Y-95000000D03*
X130935000Y-95000000D03*
X133475000Y-95000000D03*
X136015000Y-95000000D03*
X138555000Y-95000000D03*
%TD*%
D10*
%TO.C,J7*%
X74650000Y-100000000D03*
D11*
X77190000Y-100000000D03*
X79730000Y-100000000D03*
X82270000Y-100000000D03*
X84810000Y-100000000D03*
X87350000Y-100000000D03*
%TD*%
D10*
%TO.C,J12*%
X106350000Y-110000000D03*
D11*
X103810000Y-110000000D03*
X101270000Y-110000000D03*
X98730000Y-110000000D03*
X96190000Y-110000000D03*
X93650000Y-110000000D03*
%TD*%
D12*
%TO.C,U2*%
X186690000Y-103170000D03*
X186690000Y-104440000D03*
X186690000Y-105710000D03*
X186690000Y-106980000D03*
X192090000Y-106980000D03*
X192090000Y-105710000D03*
X192090000Y-104440000D03*
X192090000Y-103170000D03*
D13*
X189390000Y-105075000D03*
%TD*%
D14*
%TO.C,U3*%
X112500000Y-105500000D03*
X112500000Y-106000000D03*
X112500000Y-106500000D03*
X112500000Y-107000000D03*
X112500000Y-107500000D03*
X112500000Y-108000000D03*
X112500000Y-108500000D03*
D15*
X113450000Y-109450000D03*
X113950000Y-109450000D03*
X114450000Y-109450000D03*
X114950000Y-109450000D03*
X115450000Y-109450000D03*
X115950000Y-109450000D03*
X116450000Y-109450000D03*
D14*
X117400000Y-108500000D03*
X117400000Y-108000000D03*
X117400000Y-107500000D03*
X117400000Y-107000000D03*
X117400000Y-106500000D03*
X117400000Y-106000000D03*
X117400000Y-105500000D03*
D15*
X116450000Y-104550000D03*
X115950000Y-104550000D03*
X115450000Y-104550000D03*
X114950000Y-104550000D03*
X114450000Y-104550000D03*
X113950000Y-104550000D03*
X113450000Y-104550000D03*
D16*
X114950000Y-107000000D03*
%TD*%
D10*
%TO.C,J11*%
X181000000Y-115000000D03*
D11*
X183540000Y-115000000D03*
X186080000Y-115000000D03*
X188620000Y-115000000D03*
X191160000Y-115000000D03*
X193700000Y-115000000D03*
X196240000Y-115000000D03*
X198780000Y-115000000D03*
X201320000Y-115000000D03*
%TD*%
D17*
%TO.C,J3*%
X100300000Y-115000000D03*
X99650000Y-115000000D03*
X99000000Y-115000000D03*
X98350000Y-115000000D03*
X97700000Y-115000000D03*
D18*
X95262500Y-117675000D03*
X102737500Y-117675000D03*
D19*
X94825000Y-117675000D03*
D20*
X101225000Y-114675000D03*
D21*
X99000000Y-117675000D03*
D20*
X96775000Y-114675000D03*
D19*
X103175000Y-117675000D03*
%TD*%
D22*
%TO.C,D1*%
X147880000Y-108170000D03*
D23*
X147030000Y-108100000D03*
D24*
X147030000Y-109000000D03*
D23*
X147030000Y-109900000D03*
X148730000Y-109900000D03*
D24*
X148730000Y-109000000D03*
D25*
X147880000Y-109590000D03*
D23*
X148730000Y-108100000D03*
%TD*%
D26*
%TO.C,J1*%
X59895000Y-104840000D03*
X59895000Y-116270000D03*
D27*
X56845000Y-102780000D03*
X56845000Y-118330000D03*
D28*
X63275000Y-104230000D03*
X64795000Y-106770000D03*
X63275000Y-114340000D03*
X64795000Y-116880000D03*
D29*
X53555000Y-115000000D03*
D30*
X51015000Y-113730000D03*
X53555000Y-112460000D03*
X51015000Y-111190000D03*
X53555000Y-109920000D03*
X51015000Y-108650000D03*
X53555000Y-107380000D03*
X51015000Y-106110000D03*
%TD*%
D10*
%TO.C,J9*%
X44350000Y-110000000D03*
D11*
X41810000Y-110000000D03*
X39270000Y-110000000D03*
X36730000Y-110000000D03*
X34190000Y-110000000D03*
X31650000Y-110000000D03*
%TD*%
D31*
%TO.C,J6*%
X76500000Y-106640000D03*
D32*
X79000000Y-106640000D03*
X81000000Y-106640000D03*
X83500000Y-106640000D03*
D33*
X86570000Y-109350000D03*
X73430000Y-109350000D03*
%TD*%
D34*
%TO.C,J2*%
X36700000Y-117100000D03*
X41300000Y-117100000D03*
D35*
X42500000Y-114350000D03*
X40000000Y-114350000D03*
X38000000Y-114350000D03*
X35500000Y-114350000D03*
D36*
X33300000Y-117100000D03*
X44700000Y-117100000D03*
%TD*%
D10*
%TO.C,J10*%
X158120000Y-115095000D03*
D11*
X160660000Y-115095000D03*
X163200000Y-115095000D03*
X165740000Y-115095000D03*
X168280000Y-115095000D03*
X170820000Y-115095000D03*
X173360000Y-115095000D03*
X175900000Y-115095000D03*
%TD*%
D10*
%TO.C,J13*%
X112525000Y-115000000D03*
D11*
X115065000Y-115000000D03*
X117605000Y-115000000D03*
X120145000Y-115000000D03*
X122685000Y-115000000D03*
X125225000Y-115000000D03*
X127765000Y-115000000D03*
X130305000Y-115000000D03*
X132845000Y-115000000D03*
X135385000Y-115000000D03*
%TD*%
D10*
%TO.C,J8*%
X145275000Y-101000000D03*
D11*
X147815000Y-101000000D03*
X150355000Y-101000000D03*
X152895000Y-101000000D03*
X155435000Y-101000000D03*
X157975000Y-101000000D03*
X160515000Y-101000000D03*
X163055000Y-101000000D03*
X165595000Y-101000000D03*
X168135000Y-101000000D03*
X170675000Y-101000000D03*
X173215000Y-101000000D03*
X175755000Y-101000000D03*
%TD*%
D37*
%TO.C,U1*%
X163300000Y-104690000D03*
X163300000Y-105960000D03*
X163300000Y-107230000D03*
X163300000Y-108500000D03*
X170500000Y-108500000D03*
X170500000Y-107230000D03*
X170500000Y-105960000D03*
X170500000Y-104690000D03*
%TD*%
M02*
