M48
; DRILL file {KiCad 6.0.5} date Monday, May 09, 2022 AM12:08:54
; FORMAT={-:-/ absolute / inch / decimal}
; #@! TF.CreationDate,2022-05-09T00:08:54+02:00
; #@! TF.GenerationSoftware,Kicad,Pcbnew,6.0.5
; #@! TF.FileFunction,Plated,1,2,PTH
FMAT,2
INCH
; #@! TA.AperFunction,Plated,PTH,ViaDrill
T1C0.0157
; #@! TA.AperFunction,Plated,PTH,ComponentDrill
T2C0.0236
; #@! TA.AperFunction,Plated,PTH,ComponentDrill
T3C0.0256
; #@! TA.AperFunction,Plated,PTH,ComponentDrill
T4C0.0350
; #@! TA.AperFunction,Plated,PTH,ComponentDrill
T5C0.0354
; #@! TA.AperFunction,Plated,PTH,ComponentDrill
T6C0.0374
; #@! TA.AperFunction,Plated,PTH,ComponentDrill
T7C0.0394
; #@! TA.AperFunction,Plated,PTH,ComponentDrill
T8C0.0630
; #@! TA.AperFunction,Plated,PTH,ComponentDrill
T9C0.0906
%
G90
G05
T1
X3.8563Y-3.9567
X3.8563Y-3.9961
X4.1713Y-4.0551
X4.1713Y-4.0945
X4.3091Y-4.2126
X4.3287Y-4.2913
X4.5256Y-4.2126
X4.565Y-3.878
X4.6043Y-3.878
X4.6437Y-3.878
X4.6437Y-4.3504
X4.6634Y-3.937
X4.7028Y-4.0945
X4.7028Y-4.4291
X4.7224Y-4.0551
X4.7421Y-4.4291
X4.7815Y-4.4291
X4.8602Y-4.1535
X5.8024Y-4.3701
X7.4504Y-4.1339
T4
X2.4911Y-4.1035
X2.4911Y-4.5016
X2.551Y-4.2035
X2.551Y-4.6016
T5
X2.0085Y-4.1776
X2.0085Y-4.2776
X2.0085Y-4.3776
X2.0085Y-4.4776
X2.1085Y-4.2276
X2.1085Y-4.3276
X2.1085Y-4.4276
X2.1085Y-4.5276
T6
X3.0118Y-4.1984
X3.1102Y-4.1984
X3.189Y-4.1984
X3.2874Y-4.1984
T7
X1.2461Y-4.3307
X1.3461Y-4.3307
X1.4461Y-4.3307
X1.5461Y-4.3307
X1.6461Y-4.3307
X1.7461Y-4.3307
X2.939Y-3.937
X3.039Y-3.937
X3.139Y-3.937
X3.239Y-3.937
X3.339Y-3.937
X3.439Y-3.937
X3.687Y-4.3307
X3.7549Y-3.7402
X3.787Y-4.3307
X3.8549Y-3.7402
X3.887Y-4.3307
X3.9549Y-3.7402
X3.987Y-4.3307
X4.0549Y-3.7402
X4.087Y-4.3307
X4.1549Y-3.7402
X4.187Y-4.3307
X4.2549Y-3.7402
X4.3549Y-3.7402
X4.4301Y-4.5276
X4.4549Y-3.7402
X4.5301Y-4.5276
X4.5549Y-3.7402
X4.6301Y-4.5276
X4.6549Y-3.7402
X4.7301Y-4.5276
X4.7549Y-3.7402
X4.8301Y-4.5276
X4.8549Y-3.7402
X4.9301Y-4.5276
X4.9549Y-3.7402
X5.0301Y-4.5276
X5.0549Y-3.7402
X5.1301Y-4.5276
X5.1549Y-3.7402
X5.2301Y-4.5276
X5.2549Y-3.7402
X5.3301Y-4.5276
X5.3549Y-3.7402
X5.4549Y-3.7402
X5.5268Y-4.5276
X5.6268Y-4.5276
X5.7195Y-3.9764
X5.7268Y-4.5276
X5.8195Y-3.9764
X5.8268Y-4.5276
X5.9195Y-3.9764
X5.9268Y-4.5276
X6.0195Y-3.9764
X6.0268Y-4.5276
X6.1195Y-3.9764
X6.2195Y-3.9764
X6.2252Y-4.5313
X6.3195Y-3.9764
X6.3252Y-4.5313
X6.4195Y-3.9764
X6.4252Y-4.5313
X6.5195Y-3.9764
X6.5252Y-4.5313
X6.6195Y-3.9764
X6.6252Y-4.5313
X6.7195Y-3.9764
X6.7252Y-4.5313
X6.8195Y-3.9764
X6.8252Y-4.5313
X6.9195Y-3.9764
X6.9252Y-4.5313
X7.126Y-4.5276
X7.226Y-4.5276
X7.326Y-4.5276
X7.426Y-4.5276
X7.526Y-4.5276
X7.626Y-4.5276
X7.726Y-4.5276
X7.826Y-4.5276
X7.926Y-4.5276
T8
X2.238Y-4.0465
X2.238Y-4.6587
T9
X2.8909Y-4.3051
X3.4083Y-4.3051
T2
G00X3.7333Y-4.6191
M15
G01X3.7333Y-4.6467
M16
G05
G00X4.062Y-4.6191
M15
G01X4.062Y-4.6467
M16
G05
T3
G00X3.81Y-4.5108
M15
G01X3.81Y-4.5187
M16
G05
G00X3.9852Y-4.5108
M15
G01X3.9852Y-4.5187
M16
G05
T5
G00X1.311Y-4.5787
M15
G01X1.311Y-4.6417
M16
G05
G00X1.7598Y-4.5787
M15
G01X1.7598Y-4.6417
M16
G05
T0
M30
