%TF.GenerationSoftware,KiCad,Pcbnew,6.0.5*%
%TF.CreationDate,2022-05-09T00:08:56+02:00*%
%TF.ProjectId,gauge,67617567-652e-46b6-9963-61645f706362,rev?*%
%TF.SameCoordinates,Original*%
%TF.FileFunction,Legend,Bot*%
%TF.FilePolarity,Positive*%
%FSLAX46Y46*%
G04 Gerber Fmt 4.6, Leading zero omitted, Abs format (unit mm)*
G04 Created by KiCad (PCBNEW 6.0.5) date 2022-05-09 00:08:56*
%MOMM*%
%LPD*%
G01*
G04 APERTURE LIST*
%ADD10C,0.125000*%
%ADD11C,1.000000*%
G04 APERTURE END LIST*
D10*
X147642857Y-86892857D02*
X147642857Y-87226190D01*
X147642857Y-86940476D02*
X147619047Y-86916666D01*
X147571428Y-86892857D01*
X147500000Y-86892857D01*
X147452380Y-86916666D01*
X147428571Y-86964285D01*
X147428571Y-87226190D01*
X147119047Y-87226190D02*
X147166666Y-87202380D01*
X147190476Y-87178571D01*
X147214285Y-87130952D01*
X147214285Y-86988095D01*
X147190476Y-86940476D01*
X147166666Y-86916666D01*
X147119047Y-86892857D01*
X147047619Y-86892857D01*
X147000000Y-86916666D01*
X146976190Y-86940476D01*
X146952380Y-86988095D01*
X146952380Y-87130952D01*
X146976190Y-87178571D01*
X147000000Y-87202380D01*
X147047619Y-87226190D01*
X147119047Y-87226190D01*
X146809523Y-86892857D02*
X146619047Y-86892857D01*
X146738095Y-86726190D02*
X146738095Y-87154761D01*
X146714285Y-87202380D01*
X146666666Y-87226190D01*
X146619047Y-87226190D01*
X146142857Y-86892857D02*
X145952380Y-86892857D01*
X146071428Y-86726190D02*
X146071428Y-87154761D01*
X146047619Y-87202380D01*
X146000000Y-87226190D01*
X145952380Y-87226190D01*
X145785714Y-87226190D02*
X145785714Y-86892857D01*
X145785714Y-86940476D02*
X145761904Y-86916666D01*
X145714285Y-86892857D01*
X145642857Y-86892857D01*
X145595238Y-86916666D01*
X145571428Y-86964285D01*
X145571428Y-87226190D01*
X145571428Y-86964285D02*
X145547619Y-86916666D01*
X145500000Y-86892857D01*
X145428571Y-86892857D01*
X145380952Y-86916666D01*
X145357142Y-86964285D01*
X145357142Y-87226190D01*
D11*
X228547619Y-86523809D02*
X222833333Y-86523809D01*
X225690476Y-96523809D02*
X225690476Y-86523809D01*
X219500000Y-96523809D02*
X219500000Y-86523809D01*
X219500000Y-91285714D02*
X213785714Y-91285714D01*
X213785714Y-96523809D02*
X213785714Y-86523809D01*
X209023809Y-91285714D02*
X205690476Y-91285714D01*
X204261904Y-96523809D02*
X209023809Y-96523809D01*
X209023809Y-86523809D01*
X204261904Y-86523809D01*
X186642857Y-96523809D02*
X189976190Y-91761904D01*
X192357142Y-96523809D02*
X192357142Y-86523809D01*
X188547619Y-86523809D01*
X187595238Y-87000000D01*
X187119047Y-87476190D01*
X186642857Y-88428571D01*
X186642857Y-89857142D01*
X187119047Y-90809523D01*
X187595238Y-91285714D01*
X188547619Y-91761904D01*
X192357142Y-91761904D01*
X182357142Y-86523809D02*
X182357142Y-94619047D01*
X181880952Y-95571428D01*
X181404761Y-96047619D01*
X180452380Y-96523809D01*
X178547619Y-96523809D01*
X177595238Y-96047619D01*
X177119047Y-95571428D01*
X176642857Y-94619047D01*
X176642857Y-86523809D01*
X167119047Y-96523809D02*
X171880952Y-96523809D01*
X171880952Y-86523809D01*
X163785714Y-91285714D02*
X160452380Y-91285714D01*
X159023809Y-96523809D02*
X163785714Y-96523809D01*
X163785714Y-86523809D01*
X159023809Y-86523809D01*
X149023809Y-96523809D02*
X152357142Y-91761904D01*
X154738095Y-96523809D02*
X154738095Y-86523809D01*
X150928571Y-86523809D01*
X149976190Y-87000000D01*
X149500000Y-87476190D01*
X149023809Y-88428571D01*
X149023809Y-89857142D01*
X149500000Y-90809523D01*
X149976190Y-91285714D01*
X150928571Y-91761904D01*
X154738095Y-91761904D01*
M02*
