M48
; DRILL file {KiCad 7.0.9} date Sat 16 Dec 2023 00:38:30 CET
; FORMAT={-:-/ absolute / inch / decimal}
; #@! TF.CreationDate,2023-12-16T00:38:30+01:00
; #@! TF.GenerationSoftware,Kicad,Pcbnew,7.0.9
; #@! TF.FileFunction,Plated,1,2,PTH
FMAT,2
INCH
; #@! TA.AperFunction,Plated,PTH,ViaDrill
T1C0.0118
; #@! TA.AperFunction,Plated,PTH,ComponentDrill
T2C0.0236
; #@! TA.AperFunction,Plated,PTH,ComponentDrill
T3C0.0315
; #@! TA.AperFunction,Plated,PTH,ComponentDrill
T4C0.0394
; #@! TA.AperFunction,Plated,PTH,ComponentDrill
T5C0.0402
%
G90
G05
T1
X1.8504Y-3.6024
X1.8504Y-3.7992
X2.3228Y-3.9173
X2.3228Y-4.1732
X3.1102Y-3.937
X3.2087Y-4.3307
X3.2283Y-4.1142
X3.3071Y-3.8976
X3.3661Y-4.0354
X3.3661Y-4.3504
X3.3661Y-4.685
X3.4055Y-4.1339
X3.563Y-4.685
X3.7795Y-3.8976
X3.9173Y-3.8976
X4.0551Y-3.8976
X4.1929Y-3.8976
X4.311Y-4.1929
X4.3307Y-3.8976
X4.3898Y-4.2913
X4.4291Y-4.3307
X4.5079Y-4.4094
X4.626Y-4.4094
X6.0236Y-4.0354
X6.0236Y-4.1339
X6.0236Y-4.2323
X6.0236Y-4.3307
X7.0866Y-3.7598
X7.2244Y-3.7992
X7.3622Y-3.8583
X7.5Y-3.8976
T2
X1.4064Y-3.622
X1.4655Y-3.622
X1.8898Y-4.0354
X1.9488Y-4.0354
X2.6969Y-3.6024
X2.7559Y-3.6024
X2.8937Y-3.6024
X2.9528Y-3.6024
T3
X1.8976Y-4.2992
X1.8976Y-4.3992
X1.8976Y-4.4992
X1.8976Y-4.5992
X2.1976Y-4.2992
X2.1976Y-4.3992
X2.1976Y-4.4992
X2.1976Y-4.5992
X5.3975Y-3.9695
X5.3975Y-4.0195
X5.3975Y-4.0695
X5.3975Y-4.1195
X5.3975Y-4.1695
X5.3975Y-4.2195
X5.3975Y-4.2695
X5.3975Y-4.3195
X5.3975Y-4.3695
X5.3975Y-4.4195
T4
X1.2992Y-3.8583
X1.2992Y-3.9583
X1.2992Y-4.4187
X1.2992Y-4.5187
X3.7142Y-4.5866
X3.8142Y-4.5866
X3.852Y-3.622
X3.9142Y-4.5866
X3.952Y-3.622
X4.0142Y-4.5866
X4.052Y-3.622
X4.1142Y-4.5866
X4.152Y-3.622
X4.252Y-3.622
X4.8575Y-3.8323
X4.8575Y-3.9323
X4.8575Y-4.0323
X4.8575Y-4.1323
X4.8575Y-4.2323
X4.8575Y-4.3323
X4.8575Y-4.4323
X4.8575Y-4.5323
X4.8575Y-4.6323
X4.9575Y-3.8323
X5.0575Y-3.8323
X5.1575Y-3.8323
X5.2575Y-3.8323
X5.3575Y-3.8323
X5.4575Y-3.8323
X5.4575Y-3.9323
X5.4575Y-4.0323
X5.4575Y-4.1323
X5.4575Y-4.2323
X5.4575Y-4.3323
X5.4575Y-4.4323
X5.4575Y-4.5323
X5.4575Y-4.6323
X5.7087Y-3.8173
X5.7087Y-3.9173
X6.1992Y-4.626
X6.2992Y-4.626
X6.3992Y-4.626
X6.4992Y-4.626
X6.5992Y-4.626
X6.6791Y-3.9331
X6.6791Y-4.0331
X6.6791Y-4.1331
X6.6791Y-4.2331
T5
G00X2.7165Y-3.9878
M15
G01X2.8346Y-3.9878
M16
G05
G00X2.7165Y-4.1917
M15
G01X2.8346Y-4.1917
M16
G05
T0
M30
