%TF.GenerationSoftware,KiCad,Pcbnew,7.0.9*%
%TF.CreationDate,2023-12-16T00:38:21+01:00*%
%TF.ProjectId,gauge,67617567-652e-46b6-9963-61645f706362,rev?*%
%TF.SameCoordinates,Original*%
%TF.FileFunction,Soldermask,Top*%
%TF.FilePolarity,Negative*%
%FSLAX46Y46*%
G04 Gerber Fmt 4.6, Leading zero omitted, Abs format (unit mm)*
G04 Created by KiCad (PCBNEW 7.0.9) date 2023-12-16 00:38:21*
%MOMM*%
%LPD*%
G01*
G04 APERTURE LIST*
G04 Aperture macros list*
%AMRoundRect*
0 Rectangle with rounded corners*
0 $1 Rounding radius*
0 $2 $3 $4 $5 $6 $7 $8 $9 X,Y pos of 4 corners*
0 Add a 4 corners polygon primitive as box body*
4,1,4,$2,$3,$4,$5,$6,$7,$8,$9,$2,$3,0*
0 Add four circle primitives for the rounded corners*
1,1,$1+$1,$2,$3*
1,1,$1+$1,$4,$5*
1,1,$1+$1,$6,$7*
1,1,$1+$1,$8,$9*
0 Add four rect primitives between the rounded corners*
20,1,$1+$1,$2,$3,$4,$5,0*
20,1,$1+$1,$4,$5,$6,$7,0*
20,1,$1+$1,$6,$7,$8,$9,0*
20,1,$1+$1,$8,$9,$2,$3,0*%
G04 Aperture macros list end*
%ADD10R,1.500000X1.000000*%
%ADD11R,1.000000X1.500000*%
%ADD12C,1.700000*%
%ADD13R,2.800000X2.200000*%
%ADD14R,2.800000X2.800000*%
%ADD15R,1.200000X1.200000*%
%ADD16C,1.200000*%
%ADD17R,1.700000X1.700000*%
%ADD18O,1.700000X1.700000*%
%ADD19O,2.500000X1.500000*%
%ADD20O,1.500000X2.500000*%
%ADD21C,1.000000*%
%ADD22RoundRect,0.150000X0.150000X-0.650000X0.150000X0.650000X-0.150000X0.650000X-0.150000X-0.650000X0*%
%ADD23RoundRect,0.150000X-0.150000X0.825000X-0.150000X-0.825000X0.150000X-0.825000X0.150000X0.825000X0*%
%ADD24R,1.600000X1.600000*%
%ADD25O,1.600000X1.600000*%
%ADD26R,5.020000X2.020000*%
%ADD27O,5.020000X2.020000*%
G04 APERTURE END LIST*
D10*
%TO.C,JP25*%
X104000000Y-112150000D03*
X104000000Y-110850000D03*
%TD*%
%TO.C,JP19*%
X59000000Y-99450000D03*
X59000000Y-100750000D03*
%TD*%
D11*
%TO.C,JP15*%
X155700000Y-106000000D03*
X157000000Y-106000000D03*
%TD*%
D10*
%TO.C,JP13*%
X197650000Y-102150000D03*
X197650000Y-100850000D03*
%TD*%
%TO.C,JP22*%
X95000000Y-112150000D03*
X95000000Y-110850000D03*
%TD*%
%TO.C,JP11*%
X190550000Y-102150000D03*
X190550000Y-100850000D03*
%TD*%
%TO.C,JP3*%
X103100000Y-95850000D03*
X103100000Y-97150000D03*
%TD*%
D12*
%TO.C,J7*%
X181500000Y-116500000D03*
X181500000Y-109500000D03*
D13*
X177800000Y-115600000D03*
X185200000Y-117600000D03*
D14*
X185200000Y-108200000D03*
%TD*%
D10*
%TO.C,JP8*%
X179900000Y-102150000D03*
X179900000Y-100850000D03*
%TD*%
%TO.C,JP24*%
X101000000Y-112150000D03*
X101000000Y-110850000D03*
%TD*%
%TO.C,JP5*%
X96000000Y-95850000D03*
X96000000Y-97150000D03*
%TD*%
D15*
%TO.C,C1*%
X68500000Y-91500000D03*
D16*
X70000000Y-91500000D03*
%TD*%
D10*
%TO.C,JP10*%
X187000000Y-102150000D03*
X187000000Y-100850000D03*
%TD*%
%TO.C,JP2*%
X106650000Y-95850000D03*
X106650000Y-97150000D03*
%TD*%
D17*
%TO.C,J4*%
X145000000Y-96960000D03*
D18*
X145000000Y-99500000D03*
%TD*%
D10*
%TO.C,JP18*%
X59000000Y-103000000D03*
X59000000Y-104300000D03*
%TD*%
D15*
%TO.C,C3*%
X37222600Y-92000000D03*
D16*
X35722600Y-92000000D03*
%TD*%
D10*
%TO.C,JP20*%
X47000000Y-95000000D03*
X47000000Y-96300000D03*
%TD*%
%TO.C,JP9*%
X183450000Y-102150000D03*
X183450000Y-100850000D03*
%TD*%
D17*
%TO.C,J8*%
X33000000Y-114775000D03*
D18*
X33000000Y-112235000D03*
%TD*%
D10*
%TO.C,JP12*%
X194100000Y-102150000D03*
X194100000Y-100850000D03*
%TD*%
D19*
%TO.C,U1*%
X122880000Y-117660000D03*
X122880000Y-115120000D03*
X122880000Y-112580000D03*
X122880000Y-110040000D03*
X122880000Y-107500000D03*
X122880000Y-104960000D03*
X122880000Y-102420000D03*
X122880000Y-99880000D03*
X122880000Y-97340000D03*
D20*
X125920000Y-96840000D03*
X128460000Y-96840000D03*
X131000000Y-96840000D03*
X133540000Y-96840000D03*
X136080000Y-96840000D03*
D19*
X139120000Y-97340000D03*
X139120000Y-99880000D03*
X139120000Y-102420000D03*
X139120000Y-104960000D03*
X139120000Y-107500000D03*
X139120000Y-110040000D03*
X139120000Y-112580000D03*
X139120000Y-115120000D03*
X139120000Y-117660000D03*
D21*
X137096000Y-100826000D03*
X137096000Y-102096000D03*
X137096000Y-103366000D03*
X137096000Y-104636000D03*
X137096000Y-105906000D03*
X137096000Y-107176000D03*
X137096000Y-108446000D03*
X137096000Y-109716000D03*
X137096000Y-110986000D03*
X137096000Y-112256000D03*
%TD*%
D17*
%TO.C,J10*%
X104500000Y-116500000D03*
D18*
X101960000Y-116500000D03*
X99420000Y-116500000D03*
X96880000Y-116500000D03*
X94340000Y-116500000D03*
%TD*%
D11*
%TO.C,JP17*%
X155700000Y-100000000D03*
X157000000Y-100000000D03*
%TD*%
D12*
%TO.C,J5*%
X193500000Y-116500000D03*
X193500000Y-109500000D03*
D13*
X189800000Y-115600000D03*
X197200000Y-117600000D03*
D14*
X197200000Y-108200000D03*
%TD*%
D15*
%TO.C,C4*%
X49500000Y-102500000D03*
D16*
X48000000Y-102500000D03*
%TD*%
D11*
%TO.C,JP7*%
X74650000Y-96650000D03*
X73350000Y-96650000D03*
%TD*%
%TO.C,JP6*%
X71100000Y-96650000D03*
X69800000Y-96650000D03*
%TD*%
D15*
%TO.C,C2*%
X75000000Y-91500000D03*
D16*
X73500000Y-91500000D03*
%TD*%
D10*
%TO.C,JP4*%
X99550000Y-95850000D03*
X99550000Y-97150000D03*
%TD*%
D22*
%TO.C,U2*%
X111595000Y-114100000D03*
X112865000Y-114100000D03*
X114135000Y-114100000D03*
X115405000Y-114100000D03*
X115405000Y-106900000D03*
X114135000Y-106900000D03*
X112865000Y-106900000D03*
X111595000Y-106900000D03*
%TD*%
D17*
%TO.C,J2*%
X157460000Y-117500000D03*
D18*
X160000000Y-117500000D03*
X162540000Y-117500000D03*
X165080000Y-117500000D03*
X167620000Y-117500000D03*
%TD*%
D23*
%TO.C,OA2*%
X42905000Y-97525000D03*
X41635000Y-97525000D03*
X40365000Y-97525000D03*
X39095000Y-97525000D03*
X39095000Y-102475000D03*
X40365000Y-102475000D03*
X41635000Y-102475000D03*
X42905000Y-102475000D03*
%TD*%
D11*
%TO.C,JP26*%
X87000000Y-117500000D03*
X85700000Y-117500000D03*
%TD*%
D24*
%TO.C,OA1*%
X48200000Y-109200000D03*
D25*
X48200000Y-111740000D03*
X48200000Y-114280000D03*
X48200000Y-116820000D03*
X55820000Y-116820000D03*
X55820000Y-114280000D03*
X55820000Y-111740000D03*
X55820000Y-109200000D03*
%TD*%
D10*
%TO.C,JP21*%
X47000000Y-91500000D03*
X47000000Y-92800000D03*
%TD*%
D17*
%TO.C,J1*%
X108000000Y-92000000D03*
D18*
X105460000Y-92000000D03*
X102920000Y-92000000D03*
X100380000Y-92000000D03*
X97840000Y-92000000D03*
%TD*%
D11*
%TO.C,JP14*%
X155700000Y-109000000D03*
X157000000Y-109000000D03*
%TD*%
D10*
%TO.C,JP1*%
X110200000Y-95850000D03*
X110200000Y-97150000D03*
%TD*%
D26*
%TO.C,J6*%
X70500000Y-101290000D03*
D27*
X70500000Y-106470000D03*
%TD*%
D11*
%TO.C,JP27*%
X90550000Y-117500000D03*
X89250000Y-117500000D03*
%TD*%
D17*
%TO.C,J9*%
X33000000Y-100540000D03*
D18*
X33000000Y-98000000D03*
%TD*%
D10*
%TO.C,JP23*%
X97925000Y-112150000D03*
X97925000Y-110850000D03*
%TD*%
D11*
%TO.C,JP16*%
X155700000Y-103000000D03*
X157000000Y-103000000D03*
%TD*%
D17*
%TO.C,J3*%
X169650000Y-99900000D03*
D18*
X169650000Y-102440000D03*
X169650000Y-104980000D03*
X169650000Y-107520000D03*
%TD*%
M02*
